<mxfile host="app.diagrams.net" agent="Mozilla/5.0 (X11; Linux x86_64) AppleWebKit/537.36 (KHTML, like Gecko) Chrome/128.0.0.0 Safari/537.36" version="24.7.14">
  <diagram id="C5RBs43oDa-KdzZeNtuy" name="Page-1">
    <mxGraphModel dx="3124" dy="2246" grid="1" gridSize="10" guides="1" tooltips="1" connect="1" arrows="1" fold="1" page="1" pageScale="1" pageWidth="827" pageHeight="1169" math="0" shadow="0">
      <root>
        <mxCell id="WIyWlLk6GJQsqaUBKTNV-0" />
        <mxCell id="WIyWlLk6GJQsqaUBKTNV-1" parent="WIyWlLk6GJQsqaUBKTNV-0" />
        <mxCell id="IybeD8P3D24u24m_5unf-81" value="&lt;span style=&quot;font-size: 12px;&quot;&gt;E1 Parking&lt;/span&gt;" style="swimlane;childLayout=stackLayout;horizontal=1;startSize=50;horizontalStack=0;rounded=1;fontSize=14;fontStyle=0;strokeWidth=2;resizeParent=0;resizeLast=1;shadow=0;dashed=0;align=center;arcSize=4;whiteSpace=wrap;html=1;" vertex="1" parent="WIyWlLk6GJQsqaUBKTNV-1">
          <mxGeometry x="95" y="60" width="110" height="160" as="geometry" />
        </mxCell>
        <mxCell id="IybeD8P3D24u24m_5unf-82" value="&lt;span style=&quot;text-wrap: wrap;&quot;&gt;location&lt;/span&gt;&lt;div&gt;&lt;span style=&quot;text-wrap: wrap;&quot;&gt;duration&lt;/span&gt;&lt;span style=&quot;text-wrap: wrap;&quot;&gt;&lt;br&gt;&lt;/span&gt;&lt;/div&gt;&lt;div&gt;&lt;span style=&quot;text-wrap: wrap;&quot;&gt;price&lt;/span&gt;&lt;div style=&quot;text-wrap: wrap;&quot;&gt;vehicle_type&lt;/div&gt;&lt;/div&gt;" style="align=left;strokeColor=none;fillColor=none;spacingLeft=4;fontSize=12;verticalAlign=top;resizable=0;rotatable=0;part=1;html=1;" vertex="1" parent="IybeD8P3D24u24m_5unf-81">
          <mxGeometry y="50" width="110" height="110" as="geometry" />
        </mxCell>
        <mxCell id="IybeD8P3D24u24m_5unf-83" value="&lt;span style=&quot;font-size: 12px;&quot;&gt;E2 GYM&lt;/span&gt;" style="swimlane;childLayout=stackLayout;horizontal=1;startSize=50;horizontalStack=0;rounded=1;fontSize=14;fontStyle=0;strokeWidth=2;resizeParent=0;resizeLast=1;shadow=0;dashed=0;align=center;arcSize=4;whiteSpace=wrap;html=1;" vertex="1" parent="WIyWlLk6GJQsqaUBKTNV-1">
          <mxGeometry x="827" y="100" width="120" height="160" as="geometry" />
        </mxCell>
        <mxCell id="IybeD8P3D24u24m_5unf-84" value="&lt;span style=&quot;text-wrap: wrap;&quot;&gt;name&lt;/span&gt;&lt;div&gt;&lt;span style=&quot;text-wrap: wrap;&quot;&gt;availability&lt;/span&gt;&lt;span style=&quot;text-wrap: wrap;&quot;&gt;&lt;br&gt;&lt;/span&gt;&lt;/div&gt;&lt;div&gt;&lt;span style=&quot;text-wrap: wrap;&quot;&gt;duration&lt;/span&gt;&lt;div style=&quot;text-wrap: wrap;&quot;&gt;opening_time&lt;/div&gt;&lt;div style=&quot;text-wrap: wrap;&quot;&gt;closing_time&lt;/div&gt;&lt;div style=&quot;text-wrap: wrap;&quot;&gt;location&lt;/div&gt;&lt;/div&gt;" style="align=left;strokeColor=none;fillColor=none;spacingLeft=4;fontSize=12;verticalAlign=top;resizable=0;rotatable=0;part=1;html=1;" vertex="1" parent="IybeD8P3D24u24m_5unf-83">
          <mxGeometry y="50" width="120" height="110" as="geometry" />
        </mxCell>
        <mxCell id="IybeD8P3D24u24m_5unf-85" value="&lt;span style=&quot;font-size: 12px;&quot;&gt;E3 SportField&lt;/span&gt;" style="swimlane;childLayout=stackLayout;horizontal=1;startSize=50;horizontalStack=0;rounded=1;fontSize=14;fontStyle=0;strokeWidth=2;resizeParent=0;resizeLast=1;shadow=0;dashed=0;align=center;arcSize=4;whiteSpace=wrap;html=1;" vertex="1" parent="WIyWlLk6GJQsqaUBKTNV-1">
          <mxGeometry x="840" y="310" width="120" height="160" as="geometry" />
        </mxCell>
        <mxCell id="IybeD8P3D24u24m_5unf-86" value="&lt;span style=&quot;text-wrap: wrap;&quot;&gt;name&lt;/span&gt;&lt;div&gt;&lt;span style=&quot;text-wrap: wrap;&quot;&gt;availability&lt;/span&gt;&lt;span style=&quot;text-wrap: wrap;&quot;&gt;&lt;br&gt;&lt;/span&gt;&lt;/div&gt;&lt;div&gt;&lt;span style=&quot;text-wrap: wrap;&quot;&gt;duration&lt;/span&gt;&lt;div style=&quot;text-wrap: wrap;&quot;&gt;typeField&lt;br&gt;&lt;/div&gt;&lt;div style=&quot;text-wrap: wrap;&quot;&gt;reservation&lt;br&gt;&lt;/div&gt;&lt;div style=&quot;text-wrap: wrap;&quot;&gt;maximum_capacity&lt;br&gt;&lt;/div&gt;&lt;div style=&quot;text-wrap: wrap;&quot;&gt;location&lt;/div&gt;&lt;/div&gt;" style="align=left;strokeColor=none;fillColor=none;spacingLeft=4;fontSize=12;verticalAlign=top;resizable=0;rotatable=0;part=1;html=1;" vertex="1" parent="IybeD8P3D24u24m_5unf-85">
          <mxGeometry y="50" width="120" height="110" as="geometry" />
        </mxCell>
        <mxCell id="IybeD8P3D24u24m_5unf-87" value="&lt;span style=&quot;font-size: 12px;&quot;&gt;E4 CommuntyRoom&lt;/span&gt;" style="swimlane;childLayout=stackLayout;horizontal=1;startSize=50;horizontalStack=0;rounded=1;fontSize=14;fontStyle=0;strokeWidth=2;resizeParent=0;resizeLast=1;shadow=0;dashed=0;align=center;arcSize=4;whiteSpace=wrap;html=1;" vertex="1" parent="WIyWlLk6GJQsqaUBKTNV-1">
          <mxGeometry x="870" y="570" width="120" height="160" as="geometry" />
        </mxCell>
        <mxCell id="IybeD8P3D24u24m_5unf-88" value="&lt;span style=&quot;text-wrap: wrap;&quot;&gt;name&lt;/span&gt;&lt;div&gt;&lt;span style=&quot;text-wrap: wrap;&quot;&gt;availability&lt;/span&gt;&lt;span style=&quot;text-wrap: wrap;&quot;&gt;&lt;br&gt;&lt;/span&gt;&lt;/div&gt;&lt;div&gt;&lt;span style=&quot;text-wrap: wrap;&quot;&gt;duration&lt;/span&gt;&lt;div style=&quot;text-wrap: wrap;&quot;&gt;typeField&lt;br&gt;&lt;/div&gt;&lt;div style=&quot;text-wrap: wrap;&quot;&gt;reservation&lt;br&gt;&lt;/div&gt;&lt;div style=&quot;text-wrap: wrap;&quot;&gt;maximum_capacity&lt;br&gt;&lt;/div&gt;&lt;div style=&quot;text-wrap: wrap;&quot;&gt;location&lt;/div&gt;&lt;/div&gt;" style="align=left;strokeColor=none;fillColor=none;spacingLeft=4;fontSize=12;verticalAlign=top;resizable=0;rotatable=0;part=1;html=1;" vertex="1" parent="IybeD8P3D24u24m_5unf-87">
          <mxGeometry y="50" width="120" height="110" as="geometry" />
        </mxCell>
        <mxCell id="IybeD8P3D24u24m_5unf-91" value="&lt;span style=&quot;font-size: 12px;&quot;&gt;E5 Event&lt;/span&gt;" style="swimlane;childLayout=stackLayout;horizontal=1;startSize=50;horizontalStack=0;rounded=1;fontSize=14;fontStyle=0;strokeWidth=2;resizeParent=0;resizeLast=1;shadow=0;dashed=0;align=center;arcSize=4;whiteSpace=wrap;html=1;" vertex="1" parent="WIyWlLk6GJQsqaUBKTNV-1">
          <mxGeometry x="1040" y="-130" width="120" height="160" as="geometry" />
        </mxCell>
        <mxCell id="IybeD8P3D24u24m_5unf-92" value="&lt;span style=&quot;text-wrap: wrap;&quot;&gt;name&lt;/span&gt;&lt;div&gt;&lt;span style=&quot;text-wrap: wrap;&quot;&gt;description&lt;/span&gt;&lt;span style=&quot;text-wrap: wrap;&quot;&gt;&lt;br&gt;&lt;/span&gt;&lt;/div&gt;&lt;div&gt;&lt;span style=&quot;text-wrap: wrap;&quot;&gt;date&lt;/span&gt;&lt;div style=&quot;text-wrap: wrap;&quot;&gt;hour&lt;/div&gt;&lt;div style=&quot;text-wrap: wrap;&quot;&gt;location&lt;/div&gt;&lt;/div&gt;" style="align=left;strokeColor=none;fillColor=none;spacingLeft=4;fontSize=12;verticalAlign=top;resizable=0;rotatable=0;part=1;html=1;" vertex="1" parent="IybeD8P3D24u24m_5unf-91">
          <mxGeometry y="50" width="120" height="110" as="geometry" />
        </mxCell>
        <mxCell id="IybeD8P3D24u24m_5unf-93" value="&lt;span style=&quot;font-size: 12px;&quot;&gt;E6&amp;nbsp;UtilityBills&lt;/span&gt;" style="swimlane;childLayout=stackLayout;horizontal=1;startSize=50;horizontalStack=0;rounded=1;fontSize=14;fontStyle=0;strokeWidth=2;resizeParent=0;resizeLast=1;shadow=0;dashed=0;align=center;arcSize=4;whiteSpace=wrap;html=1;" vertex="1" parent="WIyWlLk6GJQsqaUBKTNV-1">
          <mxGeometry x="140" y="330" width="120" height="160" as="geometry" />
        </mxCell>
        <mxCell id="IybeD8P3D24u24m_5unf-94" value="&lt;span style=&quot;text-wrap: wrap;&quot;&gt;name&lt;/span&gt;&lt;div&gt;&lt;span style=&quot;text-wrap: wrap;&quot;&gt;type&lt;/span&gt;&lt;span style=&quot;text-wrap: wrap;&quot;&gt;&lt;br&gt;&lt;/span&gt;&lt;/div&gt;&lt;div&gt;&lt;span style=&quot;text-wrap: wrap;&quot;&gt;date&lt;/span&gt;&lt;div style=&quot;text-wrap: wrap;&quot;&gt;price&lt;/div&gt;&lt;/div&gt;" style="align=left;strokeColor=none;fillColor=none;spacingLeft=4;fontSize=12;verticalAlign=top;resizable=0;rotatable=0;part=1;html=1;" vertex="1" parent="IybeD8P3D24u24m_5unf-93">
          <mxGeometry y="50" width="120" height="110" as="geometry" />
        </mxCell>
        <mxCell id="IybeD8P3D24u24m_5unf-95" value="&lt;span style=&quot;font-size: 12px;&quot;&gt;E7&amp;nbsp;HOAFees&lt;/span&gt;" style="swimlane;childLayout=stackLayout;horizontal=1;startSize=50;horizontalStack=0;rounded=1;fontSize=14;fontStyle=0;strokeWidth=2;resizeParent=0;resizeLast=1;shadow=0;dashed=0;align=center;arcSize=4;whiteSpace=wrap;html=1;" vertex="1" parent="WIyWlLk6GJQsqaUBKTNV-1">
          <mxGeometry x="95" y="585" width="120" height="160" as="geometry" />
        </mxCell>
        <mxCell id="IybeD8P3D24u24m_5unf-96" value="&lt;span style=&quot;text-wrap: wrap;&quot;&gt;name&lt;/span&gt;&lt;div&gt;&lt;span style=&quot;text-wrap: wrap;&quot;&gt;date&lt;/span&gt;&lt;div style=&quot;text-wrap: wrap;&quot;&gt;price&lt;/div&gt;&lt;/div&gt;" style="align=left;strokeColor=none;fillColor=none;spacingLeft=4;fontSize=12;verticalAlign=top;resizable=0;rotatable=0;part=1;html=1;" vertex="1" parent="IybeD8P3D24u24m_5unf-95">
          <mxGeometry y="50" width="120" height="110" as="geometry" />
        </mxCell>
        <mxCell id="IybeD8P3D24u24m_5unf-97" value="&lt;span style=&quot;font-size: 12px;&quot;&gt;E8 Counseling&lt;/span&gt;" style="swimlane;childLayout=stackLayout;horizontal=1;startSize=50;horizontalStack=0;rounded=1;fontSize=14;fontStyle=0;strokeWidth=2;resizeParent=0;resizeLast=1;shadow=0;dashed=0;align=center;arcSize=4;whiteSpace=wrap;html=1;" vertex="1" parent="WIyWlLk6GJQsqaUBKTNV-1">
          <mxGeometry x="100" y="-130" width="120" height="160" as="geometry" />
        </mxCell>
        <mxCell id="IybeD8P3D24u24m_5unf-98" value="&lt;span style=&quot;text-wrap: wrap;&quot;&gt;advisor_name&lt;/span&gt;&lt;br&gt;&lt;div&gt;&lt;span style=&quot;text-wrap: wrap;&quot;&gt;date&lt;/span&gt;&lt;div style=&quot;text-wrap: wrap;&quot;&gt;&lt;span style=&quot;background-color: initial;&quot;&gt;hour&lt;/span&gt;&lt;/div&gt;&lt;div style=&quot;text-wrap: wrap;&quot;&gt;location&lt;/div&gt;&lt;div style=&quot;text-wrap: wrap;&quot;&gt;duration&lt;/div&gt;&lt;div style=&quot;text-wrap: wrap;&quot;&gt;speciality&lt;/div&gt;&lt;div style=&quot;text-wrap: wrap;&quot;&gt;availability&lt;/div&gt;&lt;/div&gt;" style="align=left;strokeColor=none;fillColor=none;spacingLeft=4;fontSize=12;verticalAlign=top;resizable=0;rotatable=0;part=1;html=1;" vertex="1" parent="IybeD8P3D24u24m_5unf-97">
          <mxGeometry y="50" width="120" height="110" as="geometry" />
        </mxCell>
        <mxCell id="IybeD8P3D24u24m_5unf-99" value="&lt;span style=&quot;font-size: 12px;&quot;&gt;E9 Resident&lt;/span&gt;" style="swimlane;childLayout=stackLayout;horizontal=1;startSize=50;horizontalStack=0;rounded=1;fontSize=14;fontStyle=0;strokeWidth=2;resizeParent=0;resizeLast=1;shadow=0;dashed=0;align=center;arcSize=4;whiteSpace=wrap;html=1;" vertex="1" parent="WIyWlLk6GJQsqaUBKTNV-1">
          <mxGeometry x="400" y="-30" width="120" height="160" as="geometry" />
        </mxCell>
        <mxCell id="IybeD8P3D24u24m_5unf-100" value="&lt;span style=&quot;text-wrap: wrap;&quot;&gt;name&lt;/span&gt;&lt;div&gt;&lt;span style=&quot;text-wrap: wrap;&quot;&gt;email&lt;/span&gt;&lt;/div&gt;&lt;div&gt;&lt;span style=&quot;text-wrap: wrap;&quot;&gt;number_phone&lt;/span&gt;&lt;/div&gt;&lt;div&gt;&lt;span style=&quot;text-wrap: wrap;&quot;&gt;number_document&lt;/span&gt;&lt;/div&gt;" style="align=left;strokeColor=none;fillColor=none;spacingLeft=4;fontSize=12;verticalAlign=top;resizable=0;rotatable=0;part=1;html=1;" vertex="1" parent="IybeD8P3D24u24m_5unf-99">
          <mxGeometry y="50" width="120" height="110" as="geometry" />
        </mxCell>
        <mxCell id="IybeD8P3D24u24m_5unf-101" value="&lt;span style=&quot;font-size: 12px;&quot;&gt;E10 Visitor&lt;/span&gt;" style="swimlane;childLayout=stackLayout;horizontal=1;startSize=50;horizontalStack=0;rounded=1;fontSize=14;fontStyle=0;strokeWidth=2;resizeParent=0;resizeLast=1;shadow=0;dashed=0;align=center;arcSize=4;whiteSpace=wrap;html=1;" vertex="1" parent="WIyWlLk6GJQsqaUBKTNV-1">
          <mxGeometry x="420" y="180" width="120" height="160" as="geometry" />
        </mxCell>
        <mxCell id="IybeD8P3D24u24m_5unf-102" value="&lt;span style=&quot;text-wrap: wrap;&quot;&gt;name&lt;/span&gt;&lt;div&gt;&lt;span style=&quot;text-wrap: wrap;&quot;&gt;email&lt;/span&gt;&lt;/div&gt;&lt;div&gt;&lt;span style=&quot;text-wrap: wrap;&quot;&gt;number_phone&lt;/span&gt;&lt;/div&gt;&lt;div&gt;&lt;span style=&quot;text-wrap: wrap;&quot;&gt;number_document&lt;/span&gt;&lt;/div&gt;&lt;div&gt;status&lt;/div&gt;" style="align=left;strokeColor=none;fillColor=none;spacingLeft=4;fontSize=12;verticalAlign=top;resizable=0;rotatable=0;part=1;html=1;" vertex="1" parent="IybeD8P3D24u24m_5unf-101">
          <mxGeometry y="50" width="120" height="110" as="geometry" />
        </mxCell>
        <mxCell id="IybeD8P3D24u24m_5unf-103" value="&lt;span style=&quot;font-size: 12px;&quot;&gt;E11 PropertyManager&lt;/span&gt;" style="swimlane;childLayout=stackLayout;horizontal=1;startSize=50;horizontalStack=0;rounded=1;fontSize=14;fontStyle=0;strokeWidth=2;resizeParent=0;resizeLast=1;shadow=0;dashed=0;align=center;arcSize=4;whiteSpace=wrap;html=1;" vertex="1" parent="WIyWlLk6GJQsqaUBKTNV-1">
          <mxGeometry x="420" y="350" width="120" height="160" as="geometry" />
        </mxCell>
        <mxCell id="IybeD8P3D24u24m_5unf-104" value="&lt;span style=&quot;text-wrap: wrap;&quot;&gt;name&lt;/span&gt;&lt;div&gt;&lt;span style=&quot;text-wrap: wrap;&quot;&gt;email&lt;/span&gt;&lt;/div&gt;&lt;div&gt;&lt;span style=&quot;text-wrap: wrap;&quot;&gt;number_phone&lt;/span&gt;&lt;/div&gt;&lt;div&gt;&lt;span style=&quot;text-wrap: wrap;&quot;&gt;number_document&lt;/span&gt;&lt;/div&gt;&lt;div&gt;location&lt;/div&gt;" style="align=left;strokeColor=none;fillColor=none;spacingLeft=4;fontSize=12;verticalAlign=top;resizable=0;rotatable=0;part=1;html=1;" vertex="1" parent="IybeD8P3D24u24m_5unf-103">
          <mxGeometry y="50" width="120" height="110" as="geometry" />
        </mxCell>
        <mxCell id="IybeD8P3D24u24m_5unf-105" value="&lt;span style=&quot;font-size: 12px;&quot;&gt;E12 Rerport&lt;/span&gt;" style="swimlane;childLayout=stackLayout;horizontal=1;startSize=50;horizontalStack=0;rounded=1;fontSize=14;fontStyle=0;strokeWidth=2;resizeParent=0;resizeLast=1;shadow=0;dashed=0;align=center;arcSize=4;whiteSpace=wrap;html=1;" vertex="1" parent="WIyWlLk6GJQsqaUBKTNV-1">
          <mxGeometry x="440" y="585" width="120" height="160" as="geometry" />
        </mxCell>
        <mxCell id="IybeD8P3D24u24m_5unf-106" value="&lt;span style=&quot;text-wrap: wrap;&quot;&gt;name&lt;/span&gt;&lt;div&gt;&lt;span style=&quot;text-wrap: wrap;&quot;&gt;type&lt;/span&gt;&lt;/div&gt;&lt;div&gt;&lt;span style=&quot;text-wrap: wrap;&quot;&gt;description&lt;/span&gt;&lt;/div&gt;&lt;div&gt;&lt;span style=&quot;text-wrap: wrap;&quot;&gt;date&lt;/span&gt;&lt;/div&gt;&lt;div&gt;&lt;span style=&quot;text-wrap: wrap;&quot;&gt;status&lt;/span&gt;&lt;/div&gt;" style="align=left;strokeColor=none;fillColor=none;spacingLeft=4;fontSize=12;verticalAlign=top;resizable=0;rotatable=0;part=1;html=1;" vertex="1" parent="IybeD8P3D24u24m_5unf-105">
          <mxGeometry y="50" width="120" height="110" as="geometry" />
        </mxCell>
        <mxCell id="IybeD8P3D24u24m_5unf-107" value="&lt;span style=&quot;font-size: 12px;&quot;&gt;E13 Deliveries&lt;/span&gt;" style="swimlane;childLayout=stackLayout;horizontal=1;startSize=50;horizontalStack=0;rounded=1;fontSize=14;fontStyle=0;strokeWidth=2;resizeParent=0;resizeLast=1;shadow=0;dashed=0;align=center;arcSize=4;whiteSpace=wrap;html=1;" vertex="1" parent="WIyWlLk6GJQsqaUBKTNV-1">
          <mxGeometry x="110" y="760" width="120" height="160" as="geometry" />
        </mxCell>
        <mxCell id="IybeD8P3D24u24m_5unf-108" value="&lt;span style=&quot;text-wrap: wrap;&quot;&gt;name&lt;/span&gt;&lt;div&gt;&lt;span style=&quot;text-wrap: wrap;&quot;&gt;type&lt;/span&gt;&lt;/div&gt;&lt;div&gt;&lt;span style=&quot;text-wrap: wrap;&quot;&gt;description&lt;/span&gt;&lt;/div&gt;&lt;div&gt;&lt;span style=&quot;text-wrap: wrap;&quot;&gt;date&lt;/span&gt;&lt;/div&gt;&lt;div&gt;&lt;span style=&quot;text-wrap: wrap;&quot;&gt;status&lt;/span&gt;&lt;/div&gt;" style="align=left;strokeColor=none;fillColor=none;spacingLeft=4;fontSize=12;verticalAlign=top;resizable=0;rotatable=0;part=1;html=1;" vertex="1" parent="IybeD8P3D24u24m_5unf-107">
          <mxGeometry y="50" width="120" height="110" as="geometry" />
        </mxCell>
        <mxCell id="IybeD8P3D24u24m_5unf-109" value="&lt;span style=&quot;font-size: 12px;&quot;&gt;E14 Reminders&lt;/span&gt;" style="swimlane;childLayout=stackLayout;horizontal=1;startSize=50;horizontalStack=0;rounded=1;fontSize=14;fontStyle=0;strokeWidth=2;resizeParent=0;resizeLast=1;shadow=0;dashed=0;align=center;arcSize=4;whiteSpace=wrap;html=1;" vertex="1" parent="WIyWlLk6GJQsqaUBKTNV-1">
          <mxGeometry x="500" y="820" width="120" height="160" as="geometry" />
        </mxCell>
        <mxCell id="IybeD8P3D24u24m_5unf-110" value="&lt;span style=&quot;text-wrap: wrap;&quot;&gt;name&lt;/span&gt;&lt;div&gt;&lt;span style=&quot;text-wrap: wrap;&quot;&gt;type&lt;/span&gt;&lt;/div&gt;&lt;div&gt;&lt;span style=&quot;text-wrap: wrap;&quot;&gt;description&lt;/span&gt;&lt;/div&gt;&lt;div&gt;&lt;span style=&quot;text-wrap: wrap;&quot;&gt;date&lt;/span&gt;&lt;/div&gt;&lt;div&gt;&lt;span style=&quot;text-wrap: wrap;&quot;&gt;hour&lt;/span&gt;&lt;/div&gt;&lt;div&gt;&lt;span style=&quot;text-wrap: wrap;&quot;&gt;location&lt;/span&gt;&lt;/div&gt;&lt;div&gt;&lt;span style=&quot;text-wrap: wrap;&quot;&gt;status&lt;/span&gt;&lt;/div&gt;" style="align=left;strokeColor=none;fillColor=none;spacingLeft=4;fontSize=12;verticalAlign=top;resizable=0;rotatable=0;part=1;html=1;" vertex="1" parent="IybeD8P3D24u24m_5unf-109">
          <mxGeometry y="50" width="120" height="110" as="geometry" />
        </mxCell>
        <mxCell id="IybeD8P3D24u24m_5unf-111" value="&lt;span style=&quot;font-size: 12px;&quot;&gt;E15 Apartment&lt;/span&gt;" style="swimlane;childLayout=stackLayout;horizontal=1;startSize=50;horizontalStack=0;rounded=1;fontSize=14;fontStyle=0;strokeWidth=2;resizeParent=0;resizeLast=1;shadow=0;dashed=0;align=center;arcSize=4;whiteSpace=wrap;html=1;" vertex="1" parent="WIyWlLk6GJQsqaUBKTNV-1">
          <mxGeometry x="-170" y="-60" width="120" height="200" as="geometry" />
        </mxCell>
        <mxCell id="IybeD8P3D24u24m_5unf-112" value="&lt;span style=&quot;text-wrap: wrap;&quot;&gt;number&lt;/span&gt;&lt;div&gt;&lt;span style=&quot;text-wrap: wrap;&quot;&gt;size&lt;/span&gt;&lt;div style=&quot;text-wrap: wrap;&quot;&gt;price&lt;/div&gt;&lt;div style=&quot;text-wrap: wrap;&quot;&gt;location&lt;/div&gt;&lt;div style=&quot;text-wrap: wrap;&quot;&gt;status&lt;/div&gt;&lt;div style=&quot;text-wrap: wrap;&quot;&gt;number_room&lt;/div&gt;&lt;div style=&quot;text-wrap: wrap;&quot;&gt;number_bathroom&lt;/div&gt;&lt;div style=&quot;text-wrap: wrap;&quot;&gt;hall&lt;/div&gt;&lt;div style=&quot;text-wrap: wrap;&quot;&gt;kitchen&lt;/div&gt;&lt;/div&gt;" style="align=left;strokeColor=none;fillColor=none;spacingLeft=4;fontSize=12;verticalAlign=top;resizable=0;rotatable=0;part=1;html=1;" vertex="1" parent="IybeD8P3D24u24m_5unf-111">
          <mxGeometry y="50" width="120" height="150" as="geometry" />
        </mxCell>
        <mxCell id="IybeD8P3D24u24m_5unf-113" value="&lt;span style=&quot;font-size: 12px;&quot;&gt;E16 BLock&lt;/span&gt;" style="swimlane;childLayout=stackLayout;horizontal=1;startSize=50;horizontalStack=0;rounded=1;fontSize=14;fontStyle=0;strokeWidth=2;resizeParent=0;resizeLast=1;shadow=0;dashed=0;align=center;arcSize=4;whiteSpace=wrap;html=1;" vertex="1" parent="WIyWlLk6GJQsqaUBKTNV-1">
          <mxGeometry x="-170" y="430" width="120" height="160" as="geometry" />
        </mxCell>
        <mxCell id="IybeD8P3D24u24m_5unf-114" value="&lt;span style=&quot;text-wrap: wrap;&quot;&gt;name&lt;/span&gt;&lt;div&gt;&lt;span style=&quot;text-wrap: wrap;&quot;&gt;number_apartments&lt;/span&gt;&lt;div style=&quot;text-wrap: wrap;&quot;&gt;floores_number&lt;/div&gt;&lt;/div&gt;" style="align=left;strokeColor=none;fillColor=none;spacingLeft=4;fontSize=12;verticalAlign=top;resizable=0;rotatable=0;part=1;html=1;" vertex="1" parent="IybeD8P3D24u24m_5unf-113">
          <mxGeometry y="50" width="120" height="110" as="geometry" />
        </mxCell>
        <mxCell id="IybeD8P3D24u24m_5unf-115" value="&lt;span style=&quot;font-size: 12px;&quot;&gt;E17 Payment&lt;/span&gt;" style="swimlane;childLayout=stackLayout;horizontal=1;startSize=50;horizontalStack=0;rounded=1;fontSize=14;fontStyle=0;strokeWidth=2;resizeParent=0;resizeLast=1;shadow=0;dashed=0;align=center;arcSize=4;whiteSpace=wrap;html=1;" vertex="1" parent="WIyWlLk6GJQsqaUBKTNV-1">
          <mxGeometry x="-200" y="220" width="120" height="160" as="geometry" />
        </mxCell>
        <mxCell id="IybeD8P3D24u24m_5unf-116" value="&lt;div&gt;&lt;span style=&quot;text-wrap: wrap;&quot;&gt;name&lt;/span&gt;&lt;/div&gt;&lt;span style=&quot;text-wrap: wrap;&quot;&gt;status&lt;br&gt;&lt;/span&gt;&lt;span style=&quot;text-wrap: wrap;&quot;&gt;type&lt;/span&gt;&lt;div style=&quot;text-wrap: wrap;&quot;&gt;&lt;span style=&quot;background-color: initial;&quot;&gt;price&lt;/span&gt;&lt;/div&gt;&lt;div style=&quot;text-wrap: wrap;&quot;&gt;date&lt;/div&gt;&lt;div style=&quot;text-wrap: wrap;&quot;&gt;payment_method&lt;/div&gt;" style="align=left;strokeColor=none;fillColor=none;spacingLeft=4;fontSize=12;verticalAlign=top;resizable=0;rotatable=0;part=1;html=1;" vertex="1" parent="IybeD8P3D24u24m_5unf-115">
          <mxGeometry y="50" width="120" height="110" as="geometry" />
        </mxCell>
        <mxCell id="IybeD8P3D24u24m_5unf-119" value="" style="edgeStyle=entityRelationEdgeStyle;fontSize=12;html=1;endArrow=ERmandOne;startArrow=ERmandOne;rounded=0;entryX=1;entryY=0.25;entryDx=0;entryDy=0;exitX=0;exitY=0.25;exitDx=0;exitDy=0;" edge="1" parent="WIyWlLk6GJQsqaUBKTNV-1" source="IybeD8P3D24u24m_5unf-99" target="IybeD8P3D24u24m_5unf-81">
          <mxGeometry width="100" height="100" relative="1" as="geometry">
            <mxPoint x="720" y="410" as="sourcePoint" />
            <mxPoint x="820" y="310" as="targetPoint" />
          </mxGeometry>
        </mxCell>
        <mxCell id="IybeD8P3D24u24m_5unf-120" value="" style="edgeStyle=entityRelationEdgeStyle;fontSize=12;html=1;endArrow=ERzeroToOne;endFill=1;rounded=0;exitX=1;exitY=0.25;exitDx=0;exitDy=0;entryX=0;entryY=0.25;entryDx=0;entryDy=0;" edge="1" parent="WIyWlLk6GJQsqaUBKTNV-1" source="IybeD8P3D24u24m_5unf-81" target="IybeD8P3D24u24m_5unf-102">
          <mxGeometry width="100" height="100" relative="1" as="geometry">
            <mxPoint x="480" y="330" as="sourcePoint" />
            <mxPoint x="580" y="230" as="targetPoint" />
            <Array as="points">
              <mxPoint x="450" y="320" />
              <mxPoint x="550" y="310" />
              <mxPoint x="520" y="320" />
            </Array>
          </mxGeometry>
        </mxCell>
        <mxCell id="IybeD8P3D24u24m_5unf-124" value="" style="edgeStyle=entityRelationEdgeStyle;fontSize=12;html=1;endArrow=ERzeroToMany;endFill=1;rounded=0;entryX=0;entryY=0.5;entryDx=0;entryDy=0;exitX=1;exitY=0.25;exitDx=0;exitDy=0;" edge="1" parent="WIyWlLk6GJQsqaUBKTNV-1" source="IybeD8P3D24u24m_5unf-81" target="IybeD8P3D24u24m_5unf-103">
          <mxGeometry width="100" height="100" relative="1" as="geometry">
            <mxPoint x="780" y="410" as="sourcePoint" />
            <mxPoint x="880" y="310" as="targetPoint" />
          </mxGeometry>
        </mxCell>
        <mxCell id="IybeD8P3D24u24m_5unf-125" value="" style="edgeStyle=entityRelationEdgeStyle;fontSize=12;html=1;endArrow=ERzeroToMany;endFill=1;rounded=0;exitX=1;exitY=0.25;exitDx=0;exitDy=0;entryX=0;entryY=0.25;entryDx=0;entryDy=0;" edge="1" parent="WIyWlLk6GJQsqaUBKTNV-1" source="IybeD8P3D24u24m_5unf-81" target="IybeD8P3D24u24m_5unf-105">
          <mxGeometry width="100" height="100" relative="1" as="geometry">
            <mxPoint x="810" y="410" as="sourcePoint" />
            <mxPoint x="910" y="310" as="targetPoint" />
          </mxGeometry>
        </mxCell>
        <mxCell id="IybeD8P3D24u24m_5unf-126" value="" style="edgeStyle=entityRelationEdgeStyle;fontSize=12;html=1;endArrow=ERzeroToMany;endFill=1;rounded=0;exitX=1;exitY=0.25;exitDx=0;exitDy=0;entryX=0;entryY=0.25;entryDx=0;entryDy=0;" edge="1" parent="WIyWlLk6GJQsqaUBKTNV-1" source="IybeD8P3D24u24m_5unf-84" target="IybeD8P3D24u24m_5unf-92">
          <mxGeometry width="100" height="100" relative="1" as="geometry">
            <mxPoint x="990" y="400" as="sourcePoint" />
            <mxPoint x="1090" y="300" as="targetPoint" />
          </mxGeometry>
        </mxCell>
        <mxCell id="IybeD8P3D24u24m_5unf-127" value="" style="edgeStyle=entityRelationEdgeStyle;fontSize=12;html=1;endArrow=ERzeroToMany;endFill=1;startArrow=ERzeroToMany;rounded=0;entryX=0;entryY=0;entryDx=0;entryDy=0;exitX=1;exitY=0.25;exitDx=0;exitDy=0;" edge="1" parent="WIyWlLk6GJQsqaUBKTNV-1" source="IybeD8P3D24u24m_5unf-99" target="IybeD8P3D24u24m_5unf-84">
          <mxGeometry width="100" height="100" relative="1" as="geometry">
            <mxPoint x="810" y="410" as="sourcePoint" />
            <mxPoint x="910" y="310" as="targetPoint" />
          </mxGeometry>
        </mxCell>
        <mxCell id="IybeD8P3D24u24m_5unf-128" value="" style="edgeStyle=entityRelationEdgeStyle;fontSize=12;html=1;endArrow=ERzeroToMany;endFill=1;startArrow=ERzeroToMany;rounded=0;exitX=1;exitY=0.25;exitDx=0;exitDy=0;entryX=0;entryY=0.25;entryDx=0;entryDy=0;" edge="1" parent="WIyWlLk6GJQsqaUBKTNV-1" source="IybeD8P3D24u24m_5unf-102" target="IybeD8P3D24u24m_5unf-84">
          <mxGeometry width="100" height="100" relative="1" as="geometry">
            <mxPoint x="810" y="410" as="sourcePoint" />
            <mxPoint x="910" y="310" as="targetPoint" />
          </mxGeometry>
        </mxCell>
        <mxCell id="IybeD8P3D24u24m_5unf-129" value="" style="edgeStyle=entityRelationEdgeStyle;fontSize=12;html=1;endArrow=ERoneToMany;startArrow=ERmandOne;rounded=0;exitX=0;exitY=0.5;exitDx=0;exitDy=0;entryX=1;entryY=0.25;entryDx=0;entryDy=0;" edge="1" parent="WIyWlLk6GJQsqaUBKTNV-1" source="IybeD8P3D24u24m_5unf-84" target="IybeD8P3D24u24m_5unf-103">
          <mxGeometry width="100" height="100" relative="1" as="geometry">
            <mxPoint x="810" y="410" as="sourcePoint" />
            <mxPoint x="910" y="310" as="targetPoint" />
          </mxGeometry>
        </mxCell>
        <mxCell id="IybeD8P3D24u24m_5unf-130" value="" style="edgeStyle=entityRelationEdgeStyle;fontSize=12;html=1;endArrow=ERzeroToMany;startArrow=ERmandOne;rounded=0;entryX=1;entryY=0.25;entryDx=0;entryDy=0;exitX=0;exitY=0.75;exitDx=0;exitDy=0;" edge="1" parent="WIyWlLk6GJQsqaUBKTNV-1" source="IybeD8P3D24u24m_5unf-84" target="IybeD8P3D24u24m_5unf-105">
          <mxGeometry width="100" height="100" relative="1" as="geometry">
            <mxPoint x="810" y="410" as="sourcePoint" />
            <mxPoint x="910" y="310" as="targetPoint" />
          </mxGeometry>
        </mxCell>
        <mxCell id="IybeD8P3D24u24m_5unf-131" value="" style="edgeStyle=entityRelationEdgeStyle;fontSize=12;html=1;endArrow=ERzeroToMany;startArrow=ERmandOne;rounded=0;exitX=1;exitY=0.25;exitDx=0;exitDy=0;entryX=0;entryY=0.5;entryDx=0;entryDy=0;" edge="1" parent="WIyWlLk6GJQsqaUBKTNV-1" source="IybeD8P3D24u24m_5unf-86" target="IybeD8P3D24u24m_5unf-92">
          <mxGeometry width="100" height="100" relative="1" as="geometry">
            <mxPoint x="990" y="400" as="sourcePoint" />
            <mxPoint x="1000" y="270" as="targetPoint" />
          </mxGeometry>
        </mxCell>
        <mxCell id="IybeD8P3D24u24m_5unf-132" value="" style="edgeStyle=entityRelationEdgeStyle;fontSize=12;html=1;endArrow=ERzeroToMany;endFill=1;startArrow=ERzeroToMany;rounded=0;exitX=1.014;exitY=0.127;exitDx=0;exitDy=0;entryX=0;entryY=0;entryDx=0;entryDy=0;exitPerimeter=0;" edge="1" parent="WIyWlLk6GJQsqaUBKTNV-1" source="IybeD8P3D24u24m_5unf-100" target="IybeD8P3D24u24m_5unf-86">
          <mxGeometry width="100" height="100" relative="1" as="geometry">
            <mxPoint x="810" y="410" as="sourcePoint" />
            <mxPoint x="910" y="310" as="targetPoint" />
          </mxGeometry>
        </mxCell>
        <mxCell id="IybeD8P3D24u24m_5unf-133" value="" style="edgeStyle=entityRelationEdgeStyle;fontSize=12;html=1;endArrow=ERzeroToMany;endFill=1;startArrow=ERzeroToMany;rounded=0;exitX=1;exitY=0.75;exitDx=0;exitDy=0;entryX=0;entryY=0.25;entryDx=0;entryDy=0;" edge="1" parent="WIyWlLk6GJQsqaUBKTNV-1" source="IybeD8P3D24u24m_5unf-102" target="IybeD8P3D24u24m_5unf-86">
          <mxGeometry width="100" height="100" relative="1" as="geometry">
            <mxPoint x="810" y="410" as="sourcePoint" />
            <mxPoint x="600" y="290" as="targetPoint" />
          </mxGeometry>
        </mxCell>
        <mxCell id="IybeD8P3D24u24m_5unf-134" value="" style="edgeStyle=entityRelationEdgeStyle;fontSize=12;html=1;endArrow=ERoneToMany;startArrow=ERmandOne;rounded=0;exitX=0;exitY=0.5;exitDx=0;exitDy=0;entryX=1;entryY=0.25;entryDx=0;entryDy=0;" edge="1" parent="WIyWlLk6GJQsqaUBKTNV-1" source="IybeD8P3D24u24m_5unf-86" target="IybeD8P3D24u24m_5unf-104">
          <mxGeometry width="100" height="100" relative="1" as="geometry">
            <mxPoint x="810" y="410" as="sourcePoint" />
            <mxPoint x="910" y="310" as="targetPoint" />
          </mxGeometry>
        </mxCell>
        <mxCell id="IybeD8P3D24u24m_5unf-135" value="" style="edgeStyle=entityRelationEdgeStyle;fontSize=12;html=1;endArrow=ERzeroToMany;startArrow=ERmandOne;rounded=0;entryX=1.026;entryY=0.16;entryDx=0;entryDy=0;exitX=0;exitY=0.75;exitDx=0;exitDy=0;entryPerimeter=0;" edge="1" parent="WIyWlLk6GJQsqaUBKTNV-1" source="IybeD8P3D24u24m_5unf-86" target="IybeD8P3D24u24m_5unf-106">
          <mxGeometry width="100" height="100" relative="1" as="geometry">
            <mxPoint x="810" y="410" as="sourcePoint" />
            <mxPoint x="910" y="310" as="targetPoint" />
          </mxGeometry>
        </mxCell>
        <mxCell id="IybeD8P3D24u24m_5unf-136" value="" style="edgeStyle=entityRelationEdgeStyle;fontSize=12;html=1;endArrow=ERzeroToMany;startArrow=ERmandOne;rounded=0;entryX=0;entryY=0.75;entryDx=0;entryDy=0;exitX=1;exitY=0.25;exitDx=0;exitDy=0;" edge="1" parent="WIyWlLk6GJQsqaUBKTNV-1" source="IybeD8P3D24u24m_5unf-87" target="IybeD8P3D24u24m_5unf-92">
          <mxGeometry width="100" height="100" relative="1" as="geometry">
            <mxPoint x="910" y="358" as="sourcePoint" />
            <mxPoint x="950" y="118" as="targetPoint" />
          </mxGeometry>
        </mxCell>
        <mxCell id="IybeD8P3D24u24m_5unf-137" value="" style="edgeStyle=entityRelationEdgeStyle;fontSize=12;html=1;endArrow=ERzeroToMany;endFill=1;startArrow=ERzeroToMany;rounded=0;exitX=1;exitY=0.5;exitDx=0;exitDy=0;entryX=0;entryY=0.25;entryDx=0;entryDy=0;fillColor=#7F00FF;" edge="1" parent="WIyWlLk6GJQsqaUBKTNV-1" source="IybeD8P3D24u24m_5unf-100" target="IybeD8P3D24u24m_5unf-87">
          <mxGeometry width="100" height="100" relative="1" as="geometry">
            <mxPoint x="900" y="480" as="sourcePoint" />
            <mxPoint x="1000" y="380" as="targetPoint" />
          </mxGeometry>
        </mxCell>
        <mxCell id="IybeD8P3D24u24m_5unf-138" value="" style="edgeStyle=entityRelationEdgeStyle;fontSize=12;html=1;endArrow=ERzeroToMany;endFill=1;startArrow=ERzeroToMany;rounded=0;entryX=0;entryY=0.25;entryDx=0;entryDy=0;" edge="1" parent="WIyWlLk6GJQsqaUBKTNV-1" source="IybeD8P3D24u24m_5unf-102" target="IybeD8P3D24u24m_5unf-88">
          <mxGeometry width="100" height="100" relative="1" as="geometry">
            <mxPoint x="900" y="480" as="sourcePoint" />
            <mxPoint x="1000" y="380" as="targetPoint" />
          </mxGeometry>
        </mxCell>
        <mxCell id="IybeD8P3D24u24m_5unf-139" value="" style="edgeStyle=entityRelationEdgeStyle;fontSize=12;html=1;endArrow=ERoneToMany;startArrow=ERmandOne;rounded=0;exitX=0;exitY=0.5;exitDx=0;exitDy=0;entryX=1;entryY=0.75;entryDx=0;entryDy=0;" edge="1" parent="WIyWlLk6GJQsqaUBKTNV-1" source="IybeD8P3D24u24m_5unf-88" target="IybeD8P3D24u24m_5unf-104">
          <mxGeometry width="100" height="100" relative="1" as="geometry">
            <mxPoint x="900" y="480" as="sourcePoint" />
            <mxPoint x="900" y="560" as="targetPoint" />
          </mxGeometry>
        </mxCell>
        <mxCell id="IybeD8P3D24u24m_5unf-141" value="" style="edgeStyle=entityRelationEdgeStyle;fontSize=12;html=1;endArrow=ERzeroToMany;startArrow=ERmandOne;rounded=0;exitX=0;exitY=0.75;exitDx=0;exitDy=0;entryX=1;entryY=0.5;entryDx=0;entryDy=0;" edge="1" parent="WIyWlLk6GJQsqaUBKTNV-1" source="IybeD8P3D24u24m_5unf-88" target="IybeD8P3D24u24m_5unf-106">
          <mxGeometry width="100" height="100" relative="1" as="geometry">
            <mxPoint x="900" y="480" as="sourcePoint" />
            <mxPoint x="1000" y="380" as="targetPoint" />
          </mxGeometry>
        </mxCell>
        <mxCell id="IybeD8P3D24u24m_5unf-143" value="" style="edgeStyle=entityRelationEdgeStyle;fontSize=12;html=1;endArrow=ERoneToMany;startArrow=ERzeroToMany;rounded=0;entryX=0.99;entryY=0.123;entryDx=0;entryDy=0;exitX=0;exitY=0.25;exitDx=0;exitDy=0;entryPerimeter=0;" edge="1" parent="WIyWlLk6GJQsqaUBKTNV-1" source="IybeD8P3D24u24m_5unf-91" target="IybeD8P3D24u24m_5unf-99">
          <mxGeometry width="100" height="100" relative="1" as="geometry">
            <mxPoint x="889.04" y="-3.552713678800501e-14" as="sourcePoint" />
            <mxPoint x="520" y="62.96" as="targetPoint" />
            <Array as="points">
              <mxPoint x="860" y="52.96" />
              <mxPoint x="840" y="-7.039999999999999" />
            </Array>
          </mxGeometry>
        </mxCell>
        <mxCell id="IybeD8P3D24u24m_5unf-145" value="" style="edgeStyle=entityRelationEdgeStyle;fontSize=12;html=1;endArrow=ERoneToMany;startArrow=ERzeroToMany;rounded=0;" edge="1" parent="WIyWlLk6GJQsqaUBKTNV-1" source="IybeD8P3D24u24m_5unf-91" target="IybeD8P3D24u24m_5unf-101">
          <mxGeometry width="100" height="100" relative="1" as="geometry">
            <mxPoint x="1020" y="93" as="sourcePoint" />
            <mxPoint x="620" y="252.5" as="targetPoint" />
            <Array as="points">
              <mxPoint x="1050" y="80" />
              <mxPoint x="900" y="-74.53999999999999" />
              <mxPoint x="1220" y="162.5" />
              <mxPoint x="880" y="-134.54" />
            </Array>
          </mxGeometry>
        </mxCell>
        <mxCell id="IybeD8P3D24u24m_5unf-146" value="" style="edgeStyle=entityRelationEdgeStyle;fontSize=12;html=1;endArrow=ERoneToMany;startArrow=ERzeroToMany;rounded=0;" edge="1" parent="WIyWlLk6GJQsqaUBKTNV-1" target="IybeD8P3D24u24m_5unf-104">
          <mxGeometry width="100" height="100" relative="1" as="geometry">
            <mxPoint x="1090" y="40" as="sourcePoint" />
            <mxPoint x="620" y="497.5" as="targetPoint" />
            <Array as="points">
              <mxPoint x="900" y="205.46" />
              <mxPoint x="880" y="145.46" />
            </Array>
          </mxGeometry>
        </mxCell>
        <mxCell id="IybeD8P3D24u24m_5unf-147" value="" style="edgeStyle=entityRelationEdgeStyle;fontSize=12;html=1;endArrow=ERzeroToMany;startArrow=ERmandOne;rounded=0;entryX=1;entryY=1;entryDx=0;entryDy=0;" edge="1" parent="WIyWlLk6GJQsqaUBKTNV-1" target="IybeD8P3D24u24m_5unf-106">
          <mxGeometry width="100" height="100" relative="1" as="geometry">
            <mxPoint x="1140" y="40" as="sourcePoint" />
            <mxPoint x="610" y="700" as="targetPoint" />
          </mxGeometry>
        </mxCell>
        <mxCell id="IybeD8P3D24u24m_5unf-148" value="" style="edgeStyle=entityRelationEdgeStyle;fontSize=12;html=1;endArrow=ERoneToMany;startArrow=ERmandOne;rounded=0;entryX=1;entryY=0;entryDx=0;entryDy=0;exitX=0;exitY=0.25;exitDx=0;exitDy=0;" edge="1" parent="WIyWlLk6GJQsqaUBKTNV-1" source="IybeD8P3D24u24m_5unf-100" target="IybeD8P3D24u24m_5unf-94">
          <mxGeometry width="100" height="100" relative="1" as="geometry">
            <mxPoint x="140" y="640" as="sourcePoint" />
            <mxPoint x="240" y="540" as="targetPoint" />
            <Array as="points">
              <mxPoint x="-550" y="900" />
            </Array>
          </mxGeometry>
        </mxCell>
        <mxCell id="IybeD8P3D24u24m_5unf-149" value="" style="edgeStyle=entityRelationEdgeStyle;fontSize=12;html=1;endArrow=ERoneToMany;startArrow=ERmandOne;rounded=0;entryX=1;entryY=0.25;entryDx=0;entryDy=0;exitX=0;exitY=0.25;exitDx=0;exitDy=0;" edge="1" parent="WIyWlLk6GJQsqaUBKTNV-1" source="IybeD8P3D24u24m_5unf-103" target="IybeD8P3D24u24m_5unf-94">
          <mxGeometry width="100" height="100" relative="1" as="geometry">
            <mxPoint x="250" y="560" as="sourcePoint" />
            <mxPoint x="260" y="450" as="targetPoint" />
            <Array as="points">
              <mxPoint x="-500" y="932" />
            </Array>
          </mxGeometry>
        </mxCell>
        <mxCell id="IybeD8P3D24u24m_5unf-150" value="" style="edgeStyle=entityRelationEdgeStyle;fontSize=12;html=1;endArrow=ERzeroToMany;startArrow=ERmandOne;rounded=0;entryX=0;entryY=0.25;entryDx=0;entryDy=0;" edge="1" parent="WIyWlLk6GJQsqaUBKTNV-1" source="IybeD8P3D24u24m_5unf-94" target="IybeD8P3D24u24m_5unf-106">
          <mxGeometry width="100" height="100" relative="1" as="geometry">
            <mxPoint x="1040" y="600" as="sourcePoint" />
            <mxPoint x="1140" y="500" as="targetPoint" />
          </mxGeometry>
        </mxCell>
        <mxCell id="IybeD8P3D24u24m_5unf-151" value="" style="edgeStyle=entityRelationEdgeStyle;fontSize=12;html=1;endArrow=ERoneToMany;startArrow=ERmandOne;rounded=0;entryX=0;entryY=0.25;entryDx=0;entryDy=0;exitX=1;exitY=0.75;exitDx=0;exitDy=0;" edge="1" parent="WIyWlLk6GJQsqaUBKTNV-1" source="IybeD8P3D24u24m_5unf-94" target="IybeD8P3D24u24m_5unf-109">
          <mxGeometry width="100" height="100" relative="1" as="geometry">
            <mxPoint x="210" y="910" as="sourcePoint" />
            <mxPoint x="310" y="810" as="targetPoint" />
          </mxGeometry>
        </mxCell>
        <mxCell id="IybeD8P3D24u24m_5unf-152" value="" style="edgeStyle=entityRelationEdgeStyle;fontSize=12;html=1;endArrow=ERmandOne;startArrow=ERmandOne;rounded=0;exitX=1;exitY=0.25;exitDx=0;exitDy=0;entryX=0;entryY=0.5;entryDx=0;entryDy=0;" edge="1" parent="WIyWlLk6GJQsqaUBKTNV-1" source="IybeD8P3D24u24m_5unf-116" target="IybeD8P3D24u24m_5unf-94">
          <mxGeometry width="100" height="100" relative="1" as="geometry">
            <mxPoint x="580" y="450" as="sourcePoint" />
            <mxPoint x="680" y="350" as="targetPoint" />
          </mxGeometry>
        </mxCell>
        <mxCell id="IybeD8P3D24u24m_5unf-153" value="" style="edgeStyle=entityRelationEdgeStyle;fontSize=12;html=1;endArrow=ERoneToMany;startArrow=ERmandOne;rounded=0;entryX=1;entryY=0.25;entryDx=0;entryDy=0;exitX=0;exitY=0.5;exitDx=0;exitDy=0;" edge="1" parent="WIyWlLk6GJQsqaUBKTNV-1" source="IybeD8P3D24u24m_5unf-100" target="IybeD8P3D24u24m_5unf-95">
          <mxGeometry width="100" height="100" relative="1" as="geometry">
            <mxPoint x="410" y="128" as="sourcePoint" />
            <mxPoint x="220" y="400" as="targetPoint" />
            <Array as="points">
              <mxPoint x="-540" y="910" />
              <mxPoint x="230" y="600" />
            </Array>
          </mxGeometry>
        </mxCell>
        <mxCell id="IybeD8P3D24u24m_5unf-154" value="" style="edgeStyle=entityRelationEdgeStyle;fontSize=12;html=1;endArrow=ERoneToMany;startArrow=ERmandOne;rounded=0;exitX=1;exitY=0.5;exitDx=0;exitDy=0;entryX=0;entryY=0.5;entryDx=0;entryDy=0;" edge="1" parent="WIyWlLk6GJQsqaUBKTNV-1" source="IybeD8P3D24u24m_5unf-96" target="IybeD8P3D24u24m_5unf-106">
          <mxGeometry width="100" height="100" relative="1" as="geometry">
            <mxPoint x="580" y="450" as="sourcePoint" />
            <mxPoint x="680" y="350" as="targetPoint" />
          </mxGeometry>
        </mxCell>
        <mxCell id="IybeD8P3D24u24m_5unf-156" value="" style="edgeStyle=entityRelationEdgeStyle;fontSize=12;html=1;endArrow=ERoneToMany;startArrow=ERmandOne;rounded=0;exitX=1;exitY=0.75;exitDx=0;exitDy=0;entryX=0;entryY=0.25;entryDx=0;entryDy=0;" edge="1" parent="WIyWlLk6GJQsqaUBKTNV-1" source="IybeD8P3D24u24m_5unf-96" target="IybeD8P3D24u24m_5unf-110">
          <mxGeometry width="100" height="100" relative="1" as="geometry">
            <mxPoint x="210" y="755" as="sourcePoint" />
            <mxPoint x="400" y="780" as="targetPoint" />
          </mxGeometry>
        </mxCell>
        <mxCell id="IybeD8P3D24u24m_5unf-157" value="" style="edgeStyle=entityRelationEdgeStyle;fontSize=12;html=1;endArrow=ERmandOne;startArrow=ERmandOne;rounded=0;exitX=1;exitY=0.5;exitDx=0;exitDy=0;entryX=0;entryY=0;entryDx=0;entryDy=0;" edge="1" parent="WIyWlLk6GJQsqaUBKTNV-1" source="IybeD8P3D24u24m_5unf-116" target="IybeD8P3D24u24m_5unf-96">
          <mxGeometry width="100" height="100" relative="1" as="geometry">
            <mxPoint x="-40" y="308" as="sourcePoint" />
            <mxPoint x="100" y="455" as="targetPoint" />
          </mxGeometry>
        </mxCell>
        <mxCell id="IybeD8P3D24u24m_5unf-158" value="" style="edgeStyle=entityRelationEdgeStyle;fontSize=12;html=1;endArrow=ERzeroToMany;endFill=1;startArrow=ERzeroToMany;rounded=0;entryX=1;entryY=0.25;entryDx=0;entryDy=0;exitX=-0.021;exitY=0.159;exitDx=0;exitDy=0;exitPerimeter=0;" edge="1" parent="WIyWlLk6GJQsqaUBKTNV-1" source="IybeD8P3D24u24m_5unf-99" target="IybeD8P3D24u24m_5unf-98">
          <mxGeometry width="100" height="100" relative="1" as="geometry">
            <mxPoint x="450" y="450" as="sourcePoint" />
            <mxPoint x="550" y="350" as="targetPoint" />
          </mxGeometry>
        </mxCell>
        <mxCell id="IybeD8P3D24u24m_5unf-159" value="" style="edgeStyle=entityRelationEdgeStyle;fontSize=12;html=1;endArrow=ERzeroToMany;startArrow=ERmandOne;rounded=0;exitX=1;exitY=0.75;exitDx=0;exitDy=0;" edge="1" parent="WIyWlLk6GJQsqaUBKTNV-1" source="IybeD8P3D24u24m_5unf-100" target="IybeD8P3D24u24m_5unf-101">
          <mxGeometry width="100" height="100" relative="1" as="geometry">
            <mxPoint x="450" y="450" as="sourcePoint" />
            <mxPoint x="550" y="350" as="targetPoint" />
          </mxGeometry>
        </mxCell>
        <mxCell id="IybeD8P3D24u24m_5unf-162" value="" style="edgeStyle=entityRelationEdgeStyle;fontSize=12;html=1;endArrow=ERzeroToMany;startArrow=ERmandOne;rounded=0;" edge="1" parent="WIyWlLk6GJQsqaUBKTNV-1" source="IybeD8P3D24u24m_5unf-99" target="IybeD8P3D24u24m_5unf-105">
          <mxGeometry width="100" height="100" relative="1" as="geometry">
            <mxPoint x="450" y="450" as="sourcePoint" />
            <mxPoint x="550" y="350" as="targetPoint" />
          </mxGeometry>
        </mxCell>
        <mxCell id="IybeD8P3D24u24m_5unf-163" value="" style="edgeStyle=entityRelationEdgeStyle;fontSize=12;html=1;endArrow=ERzeroToMany;startArrow=ERmandOne;rounded=0;exitX=0;exitY=0.75;exitDx=0;exitDy=0;" edge="1" parent="WIyWlLk6GJQsqaUBKTNV-1" source="IybeD8P3D24u24m_5unf-100" target="IybeD8P3D24u24m_5unf-108">
          <mxGeometry width="100" height="100" relative="1" as="geometry">
            <mxPoint x="570" y="450" as="sourcePoint" />
            <mxPoint x="670" y="350" as="targetPoint" />
          </mxGeometry>
        </mxCell>
        <mxCell id="IybeD8P3D24u24m_5unf-164" value="" style="edgeStyle=entityRelationEdgeStyle;fontSize=12;html=1;endArrow=ERzeroToMany;startArrow=ERmandOne;rounded=0;" edge="1" parent="WIyWlLk6GJQsqaUBKTNV-1" source="IybeD8P3D24u24m_5unf-99" target="IybeD8P3D24u24m_5unf-110">
          <mxGeometry width="100" height="100" relative="1" as="geometry">
            <mxPoint x="570" y="540" as="sourcePoint" />
            <mxPoint x="790" y="920" as="targetPoint" />
          </mxGeometry>
        </mxCell>
        <mxCell id="IybeD8P3D24u24m_5unf-165" value="" style="edgeStyle=entityRelationEdgeStyle;fontSize=12;html=1;endArrow=ERmandOne;startArrow=ERmandOne;rounded=0;" edge="1" parent="WIyWlLk6GJQsqaUBKTNV-1" source="IybeD8P3D24u24m_5unf-111" target="IybeD8P3D24u24m_5unf-99">
          <mxGeometry width="100" height="100" relative="1" as="geometry">
            <mxPoint x="570" y="170" as="sourcePoint" />
            <mxPoint x="670" y="70" as="targetPoint" />
          </mxGeometry>
        </mxCell>
        <mxCell id="IybeD8P3D24u24m_5unf-166" value="" style="edgeStyle=entityRelationEdgeStyle;fontSize=12;html=1;endArrow=ERoneToMany;startArrow=ERmandOne;rounded=0;entryX=1;entryY=0.75;entryDx=0;entryDy=0;exitX=0;exitY=1;exitDx=0;exitDy=0;" edge="1" parent="WIyWlLk6GJQsqaUBKTNV-1" source="IybeD8P3D24u24m_5unf-100" target="IybeD8P3D24u24m_5unf-116">
          <mxGeometry width="100" height="100" relative="1" as="geometry">
            <mxPoint x="570" y="370" as="sourcePoint" />
            <mxPoint x="670" y="270" as="targetPoint" />
            <Array as="points">
              <mxPoint x="220" y="290" />
              <mxPoint x="200" y="280" />
            </Array>
          </mxGeometry>
        </mxCell>
        <mxCell id="IybeD8P3D24u24m_5unf-167" value="" style="edgeStyle=entityRelationEdgeStyle;fontSize=12;html=1;endArrow=ERzeroToMany;startArrow=ERmandOne;rounded=0;exitX=0.5;exitY=1;exitDx=0;exitDy=0;entryX=0.75;entryY=0;entryDx=0;entryDy=0;" edge="1" parent="WIyWlLk6GJQsqaUBKTNV-1" source="IybeD8P3D24u24m_5unf-104" target="IybeD8P3D24u24m_5unf-105">
          <mxGeometry width="100" height="100" relative="1" as="geometry">
            <mxPoint x="500" y="510" as="sourcePoint" />
            <mxPoint x="480" y="640" as="targetPoint" />
          </mxGeometry>
        </mxCell>
        <mxCell id="IybeD8P3D24u24m_5unf-168" value="" style="edgeStyle=entityRelationEdgeStyle;fontSize=12;html=1;endArrow=ERzeroToMany;startArrow=ERmandOne;rounded=0;exitX=1.002;exitY=0.634;exitDx=0;exitDy=0;exitPerimeter=0;" edge="1" parent="WIyWlLk6GJQsqaUBKTNV-1" source="IybeD8P3D24u24m_5unf-104" target="IybeD8P3D24u24m_5unf-110">
          <mxGeometry width="100" height="100" relative="1" as="geometry">
            <mxPoint x="500" y="510" as="sourcePoint" />
            <mxPoint x="600" y="410" as="targetPoint" />
          </mxGeometry>
        </mxCell>
        <mxCell id="IybeD8P3D24u24m_5unf-169" value="" style="edgeStyle=entityRelationEdgeStyle;fontSize=12;html=1;endArrow=ERoneToMany;startArrow=ERmandOne;rounded=0;exitX=0;exitY=0.75;exitDx=0;exitDy=0;" edge="1" parent="WIyWlLk6GJQsqaUBKTNV-1" source="IybeD8P3D24u24m_5unf-104" target="IybeD8P3D24u24m_5unf-114">
          <mxGeometry width="100" height="100" relative="1" as="geometry">
            <mxPoint x="-60" y="790" as="sourcePoint" />
            <mxPoint x="40" y="690" as="targetPoint" />
          </mxGeometry>
        </mxCell>
        <mxCell id="IybeD8P3D24u24m_5unf-170" value="" style="edgeStyle=entityRelationEdgeStyle;fontSize=12;html=1;endArrow=ERmandOne;startArrow=ERmandOne;rounded=0;entryX=0;entryY=0;entryDx=0;entryDy=0;exitX=1;exitY=0.25;exitDx=0;exitDy=0;" edge="1" parent="WIyWlLk6GJQsqaUBKTNV-1" source="IybeD8P3D24u24m_5unf-115" target="IybeD8P3D24u24m_5unf-103">
          <mxGeometry width="100" height="100" relative="1" as="geometry">
            <mxPoint x="700" y="480" as="sourcePoint" />
            <mxPoint x="800" y="380" as="targetPoint" />
          </mxGeometry>
        </mxCell>
        <mxCell id="IybeD8P3D24u24m_5unf-171" value="" style="edgeStyle=entityRelationEdgeStyle;fontSize=12;html=1;endArrow=ERzeroToMany;startArrow=ERmandOne;rounded=0;entryX=0;entryY=0.75;entryDx=0;entryDy=0;" edge="1" parent="WIyWlLk6GJQsqaUBKTNV-1" source="IybeD8P3D24u24m_5unf-107" target="IybeD8P3D24u24m_5unf-106">
          <mxGeometry width="100" height="100" relative="1" as="geometry">
            <mxPoint x="640" y="810" as="sourcePoint" />
            <mxPoint x="740" y="710" as="targetPoint" />
          </mxGeometry>
        </mxCell>
        <mxCell id="IybeD8P3D24u24m_5unf-172" value="" style="edgeStyle=entityRelationEdgeStyle;fontSize=12;html=1;endArrow=ERzeroToMany;startArrow=ERmandOne;rounded=0;entryX=0.026;entryY=0.101;entryDx=0;entryDy=0;entryPerimeter=0;" edge="1" parent="WIyWlLk6GJQsqaUBKTNV-1" source="IybeD8P3D24u24m_5unf-113" target="IybeD8P3D24u24m_5unf-105">
          <mxGeometry width="100" height="100" relative="1" as="geometry">
            <mxPoint x="640" y="590" as="sourcePoint" />
            <mxPoint x="740" y="490" as="targetPoint" />
          </mxGeometry>
        </mxCell>
        <mxCell id="IybeD8P3D24u24m_5unf-173" value="" style="edgeStyle=entityRelationEdgeStyle;fontSize=12;html=1;endArrow=ERzeroToMany;startArrow=ERmandOne;rounded=0;" edge="1" parent="WIyWlLk6GJQsqaUBKTNV-1" source="IybeD8P3D24u24m_5unf-115" target="IybeD8P3D24u24m_5unf-109">
          <mxGeometry width="100" height="100" relative="1" as="geometry">
            <mxPoint x="560" y="590" as="sourcePoint" />
            <mxPoint x="660" y="490" as="targetPoint" />
          </mxGeometry>
        </mxCell>
        <mxCell id="IybeD8P3D24u24m_5unf-174" value="" style="edgeStyle=entityRelationEdgeStyle;fontSize=12;html=1;endArrow=ERoneToMany;startArrow=ERmandOne;rounded=0;exitX=0.919;exitY=0.01;exitDx=0;exitDy=0;exitPerimeter=0;" edge="1" parent="WIyWlLk6GJQsqaUBKTNV-1" source="IybeD8P3D24u24m_5unf-114" target="IybeD8P3D24u24m_5unf-112">
          <mxGeometry width="100" height="100" relative="1" as="geometry">
            <mxPoint x="580" y="620" as="sourcePoint" />
            <mxPoint x="680" y="520" as="targetPoint" />
          </mxGeometry>
        </mxCell>
        <mxCell id="IybeD8P3D24u24m_5unf-175" value="" style="edgeStyle=entityRelationEdgeStyle;fontSize=12;html=1;endArrow=ERmandOne;startArrow=ERmandOne;rounded=0;entryX=0;entryY=0.5;entryDx=0;entryDy=0;exitX=0;exitY=0;exitDx=0;exitDy=0;" edge="1" parent="WIyWlLk6GJQsqaUBKTNV-1" source="IybeD8P3D24u24m_5unf-115" target="IybeD8P3D24u24m_5unf-112">
          <mxGeometry width="100" height="100" relative="1" as="geometry">
            <mxPoint x="580" y="390" as="sourcePoint" />
            <mxPoint x="680" y="290" as="targetPoint" />
          </mxGeometry>
        </mxCell>
      </root>
    </mxGraphModel>
  </diagram>
</mxfile>
